<svg width="32" height="33" viewBox="0 0 32 33" fill="none">
  <path fill-rule="evenodd" clip-rule="evenodd" d="M5.66699 11.8307C5.66699 6.41472 10.3623 2.14453 16.0003 2.14453C21.6384 2.14453 26.3337 6.41472 26.3337 11.8307C26.3337 16.9122 23.1831 22.8779 18.1 25.0502C16.7656 25.6204 15.2351 25.6204 13.9006 25.0502C8.81751 22.8779 5.66699 16.9122 5.66699 11.8307ZM16.0003 4.14453C11.3291 4.14453 7.66699 7.65221 7.66699 11.8307C7.66699 16.2685 10.4742 21.4109 14.6865 23.2111C15.519 23.5668 16.4817 23.5668 17.3141 23.2111C21.5264 21.4109 24.3337 16.2685 24.3337 11.8307C24.3337 7.65221 20.6716 4.14453 16.0003 4.14453ZM16.0003 10.8112C15.0798 10.8112 14.3337 11.5574 14.3337 12.4779C14.3337 13.3983 15.0798 14.1445 16.0003 14.1445C16.9208 14.1445 17.667 13.3983 17.667 12.4779C17.667 11.5574 16.9208 10.8112 16.0003 10.8112ZM12.3337 12.4779C12.3337 10.4528 13.9753 8.8112 16.0003 8.8112C18.0254 8.8112 19.667 10.4528 19.667 12.4779C19.667 14.5029 18.0254 16.1445 16.0003 16.1445C13.9753 16.1445 12.3337 14.5029 12.3337 12.4779ZM4.79421 20.4733C5.16491 20.8827 5.13355 21.5151 4.72417 21.8858C3.96724 22.5712 3.66699 23.2273 3.66699 23.8112C3.66699 24.8294 4.63234 26.0843 6.9826 27.1419C9.23899 28.1573 12.4263 28.8112 16.0003 28.8112C19.5743 28.8112 22.7617 28.1573 25.018 27.1419C27.3683 26.0843 28.3337 24.8294 28.3337 23.8112C28.3337 23.2273 28.0334 22.5712 27.2765 21.8858C26.8671 21.5151 26.8357 20.8827 27.2064 20.4733C27.5771 20.0639 28.2095 20.0326 28.6189 20.4033C29.6363 21.3245 30.3337 22.4793 30.3337 23.8112C30.3337 26.1067 28.3142 27.8518 25.8388 28.9658C23.2695 30.122 19.7901 30.8112 16.0003 30.8112C12.2105 30.8112 8.73119 30.122 6.16187 28.9658C3.68641 27.8518 1.66699 26.1067 1.66699 23.8112C1.66699 22.4793 2.36439 21.3245 3.38173 20.4033C3.79112 20.0326 4.4235 20.0639 4.79421 20.4733Z" fill="#052B4C"/>
</svg>