<svg xmlns="http://www.w3.org/2000/svg" width="32" height="33" viewBox="0 0 32 33" fill="none">
  <path d="M17.6782 3.48431C17.7664 2.93912 18.2818 2.56929 18.827 2.65755C18.8608 2.66401 18.9693 2.6843 19.0262 2.69697C19.14 2.72231 19.2987 2.76132 19.4966 2.81896C19.8923 2.93421 20.4451 3.12409 21.1086 3.42827C22.437 4.03727 24.2047 5.10261 26.0391 6.93701C27.8735 8.77141 28.9388 10.5392 29.5478 11.8675C29.852 12.531 30.0419 13.0838 30.1572 13.4795C30.2148 13.6774 30.2538 13.8361 30.2791 13.9499C30.2918 14.0068 30.3011 14.0525 30.3075 14.0862L30.3152 14.1278C30.4035 14.673 30.037 15.2097 29.4918 15.2979C28.9482 15.3859 28.4361 15.0179 28.3456 14.4753C28.3428 14.4607 28.3352 14.4216 28.327 14.3846C28.3105 14.3108 28.2821 14.1937 28.237 14.0388C28.1467 13.729 27.99 13.2686 27.7298 12.701C27.21 11.5673 26.2754 10.0017 24.6249 8.35123C22.9744 6.70075 21.4088 5.76609 20.2751 5.24631C19.7075 4.9861 19.2471 4.82939 18.9373 4.73916C18.7824 4.69405 18.5878 4.64937 18.5139 4.63293C17.9713 4.5425 17.5902 4.02794 17.6782 3.48431Z" fill="#052B4C"/>
  <path fill-rule="evenodd" clip-rule="evenodd" d="M17.9798 8.08359C18.1316 7.55256 18.6851 7.24507 19.2161 7.39679L18.9414 8.35831C19.2161 7.39679 19.2161 7.39679 19.2161 7.39679L19.218 7.39734L19.2201 7.39793L19.2245 7.39923L19.2348 7.40231L19.2612 7.41053C19.2813 7.41696 19.3064 7.42534 19.3364 7.43596C19.3962 7.45721 19.4754 7.48743 19.5725 7.52903C19.7667 7.61228 20.0321 7.74084 20.3581 7.93379C21.0108 8.32003 21.9017 8.9616 22.9483 10.0082C23.9949 11.0549 24.6365 11.9458 25.0228 12.5984C25.2157 12.9244 25.3443 13.1898 25.4275 13.3841C25.4691 13.4811 25.4993 13.5603 25.5206 13.6202C25.5312 13.6501 25.5396 13.6752 25.546 13.6953L25.5542 13.7217L25.5573 13.732L25.5586 13.7365L25.5592 13.7385C25.5592 13.7385 25.5597 13.7404 24.5982 14.0152L25.5598 13.7404C25.7115 14.2715 25.404 14.825 24.8729 14.9767C24.3464 15.1271 23.7978 14.8261 23.6407 14.3034L23.6357 14.289C23.6286 14.269 23.6139 14.2295 23.5892 14.1719C23.5399 14.0568 23.4504 13.8685 23.3016 13.617C23.0043 13.1147 22.4674 12.3557 21.5341 11.4224C20.6008 10.4892 19.8418 9.95223 19.3395 9.65494C19.088 9.50612 18.8997 9.41666 18.7846 9.36732C18.727 9.34263 18.6876 9.32792 18.6675 9.32081L18.6532 9.31589C18.1304 9.15871 17.8294 8.61012 17.9798 8.08359Z" fill="#052B4C"/>
  <path fill-rule="evenodd" clip-rule="evenodd" d="M6.6753 6.85332C8.91539 4.61323 12.6956 4.78352 14.2553 7.57835L15.1207 9.12892C16.1392 10.954 15.7052 13.2568 14.2141 14.7661C14.1943 14.7933 14.089 14.9465 14.0759 15.2143C14.0592 15.5561 14.1806 16.3464 15.4051 17.571C16.6293 18.7952 17.4196 18.9168 17.7615 18.9002C18.0294 18.8872 18.1828 18.7819 18.21 18.762C19.7193 17.2709 22.0221 16.8369 23.8472 17.8554L25.3978 18.7208C28.1926 20.2805 28.3629 24.0607 26.1228 26.3008C24.9246 27.499 23.3314 28.5637 21.4591 28.6347C18.6845 28.7398 14.0775 28.0233 9.51516 23.461C4.95278 18.8986 4.23627 14.2916 4.34145 11.517C4.41243 9.64476 5.47709 8.05154 6.6753 6.85332ZM12.5089 8.55301C11.7102 7.12189 9.56395 6.7931 8.08951 8.26754C7.05572 9.30133 6.38363 10.4424 6.34001 11.5928C6.2523 13.9066 6.82355 17.9409 10.9294 22.0467C15.0352 26.1526 19.0695 26.7238 21.3833 26.6361C22.5337 26.5925 23.6748 25.9204 24.7086 24.8866C26.183 23.4122 25.8542 21.2659 24.4231 20.4672L22.8725 19.6019C21.908 19.0636 20.5532 19.2472 19.6021 20.1982C19.5086 20.2916 18.9139 20.8465 17.8586 20.8978C16.7783 20.9504 15.4707 20.465 13.9909 18.9852C12.5106 17.5049 12.0254 16.1969 12.0783 15.1165C12.13 14.0611 12.6849 13.467 12.7778 13.3741C13.7289 12.423 13.9126 11.0681 13.3742 10.1036L12.5089 8.55301Z" fill="#052B4C"/>
</svg>