<svg xmlns="http://www.w3.org/2000/svg" width="32" height="33" viewBox="0 0 32 33" fill="none">
  <path d="M2.66797 16.9792C2.66797 11.9509 2.66797 9.43669 4.23007 7.8746C5.79216 6.3125 8.30632 6.3125 13.3346 6.3125H18.668C23.6963 6.3125 26.2104 6.3125 27.7725 7.8746C29.3346 9.43669 29.3346 11.9509 29.3346 16.9792C29.3346 22.0075 29.3346 24.5216 27.7725 26.0837C26.2104 27.6458 23.6963 27.6458 18.668 27.6458H13.3346C8.30632 27.6458 5.79216 27.6458 4.23007 26.0837C2.66797 24.5216 2.66797 22.0075 2.66797 16.9792Z" stroke="#052B4C" stroke-width="2"/>
  <path d="M8 11.6445L10.8785 14.0433C13.3274 16.084 14.5518 17.1044 16 17.1044C17.4482 17.1044 18.6726 16.084 21.1215 14.0433L24 11.6445" stroke="#052B4C" stroke-width="2" stroke-linecap="round"/>
</svg>