<svg width="140" height="104" viewBox="0 0 140 104" fill="none" xmlns="http://www.w3.org/2000/svg">
<path d="M40.4253 6.58396C41.4781 6.28089 42.483 5.98579 42.6584 5.91402C43.0492 5.77046 43.0333 5.77046 43.1689 5.85819C43.5517 6.09746 42.2517 7.89992 40.2658 9.89378C38.3357 11.8318 36.956 12.6054 35.0817 12.8048C34.6271 12.8607 34.2204 12.8766 34.1725 12.8527C34.1327 12.8288 33.5504 13.2196 32.8805 13.73C32.2989 14.1679 31.6352 14.6703 31.272 14.9453L31.1179 15.0619C30.8228 15.2852 30.5915 15.4766 30.5995 15.4846C30.6075 15.4926 30.8308 15.4527 31.094 15.3889C31.7639 15.2214 34.1087 15.1496 35.0977 15.2693C35.5284 15.3251 36.2701 15.4527 36.7486 15.5643C38.4633 15.9472 41.1591 16.968 41.0873 17.2073C41.0314 17.3668 40.5609 17.5024 40.0584 17.5024C39.5081 17.5104 38.0566 17.6619 35.4008 17.9889C31.9952 18.4116 29.7142 18.3956 28.1431 17.941L27.505 17.7576L27.0265 18.1325C26.4523 18.5711 24.9529 19.8312 24.3946 20.3417L23.9958 20.7006L24.2909 20.5809C24.8492 20.3576 25.9897 20.0545 26.7474 19.9349C28.3903 19.6717 32.1627 19.6558 32.8725 19.903C33.1437 20.0067 33.2075 20.2141 33.0161 20.3736C32.9603 20.4214 32.1547 20.8042 31.2455 21.211C30.3284 21.6257 28.9725 22.2478 28.2228 22.5987C25.6148 23.8349 23.286 24.449 21.2124 24.449C20.4627 24.449 20.4467 24.457 20.2394 24.6883C19.394 25.6294 16.8897 29.1625 17.2326 28.9153C17.3204 28.8515 17.6793 28.5963 18.0222 28.349C19.7848 27.0889 21.8983 26.1717 24.4744 25.5576C25.6787 25.2705 26.4523 25.2147 26.4922 25.4141C26.5241 25.5736 26.2768 25.8128 25.0326 26.8257C24.4664 27.2963 23.5333 28.0858 22.959 28.5963C21.6989 29.7208 20.8774 30.3588 19.5694 31.2521C17.7112 32.5122 15.7811 33.5411 14.9357 33.7165L14.4731 33.8122L14.1142 34.6098C13.5161 35.9736 12.3118 39.1718 12.3118 39.427C12.3118 39.4509 12.4633 39.2595 12.6467 38.9963C13.213 38.1908 14.0823 37.2018 14.6645 36.6994C15.5897 35.9098 18.3093 34.219 20.1516 33.2938C21.1486 32.7914 21.4038 32.7036 21.4038 32.8791C21.4038 32.9509 20.997 33.549 20.5026 34.211C20.0001 34.873 19.059 36.2049 18.413 37.1699C15.9406 40.8307 14.5608 42.4178 12.5989 43.8853C11.8013 44.4834 11.2909 44.7865 11.0915 44.7865C10.9719 44.7865 10.7167 46.3018 10.5093 48.2558C10.3976 49.3325 10.2142 52.5307 10.27 52.5785C10.286 52.5945 10.3578 52.3313 10.4375 51.9883C10.8841 49.9386 11.7216 48.1681 12.9338 46.7006C13.7633 45.6957 17.2964 42.2343 17.4958 42.2343C17.5277 42.2343 17.5277 42.3859 17.4799 42.5693C17.3921 42.9681 16.6105 45.5761 16.132 47.0675C15.9565 47.6337 15.7651 48.2239 15.7253 48.3755C15.5498 48.9736 14.7044 51.2466 14.4651 51.7571C14.1461 52.427 13.1253 53.9503 11.9529 55.5135C10.8682 56.9491 10.6927 57.1325 10.5173 56.989C10.4136 56.9012 10.4056 56.9172 10.4375 57.1166C10.4535 57.2442 10.5093 57.7227 10.5572 58.1853C10.7246 59.7724 11.1154 61.9896 11.5302 63.6884L11.7136 64.446L11.7614 63.3295C11.8731 60.9687 12.3516 59.4853 13.8989 56.7098C15.2627 54.2693 16.4032 52.6742 16.6185 52.8896C16.8179 53.089 16.2197 61.519 15.8608 63.6246C15.5658 65.3632 14.2817 67.9712 13.3964 68.6332L13.1253 68.8405L13.4682 69.67C13.9946 70.9779 14.4253 71.9111 15.1032 73.251C15.7173 74.4553 16.6026 76.0105 16.5069 75.6994C16.475 75.6197 16.3633 75.0295 16.2437 74.3835C15.9645 72.8442 15.9565 71.4884 16.2038 70.0289C16.459 68.5694 16.8977 66.5755 17.1848 65.5546C17.432 64.6853 17.9743 63.3374 18.1339 63.1779C18.2615 63.0503 18.3731 63.2657 18.3731 63.6166C18.3731 64.1669 18.724 65.9534 19.4099 68.8724C20.1357 71.9908 20.4069 73.8651 20.3431 75.2927C20.2633 76.8718 19.9204 78.5626 19.4977 79.432L19.2664 79.8945L19.9044 80.6921C20.6302 81.6013 22.2173 83.3878 22.8394 83.9859L23.2461 84.3847L23.0069 83.8982C22.4406 82.7577 22.2811 81.4737 22.2811 78.124C22.2811 75.7074 22.3609 73.4184 22.4486 73.4184C22.4805 73.4184 22.8474 74.0804 23.2701 74.8859C24.0596 76.4092 24.7854 77.6933 25.5909 79.0013C27.2578 81.697 28.2627 85.278 27.9517 87.3516C27.8879 87.7424 27.84 88.1172 27.832 88.205C27.8161 88.4363 30.0014 89.9197 32.2823 91.2357L32.6652 91.459L32.3541 91.0363C31.2296 89.489 30.5437 87.87 29.8498 85.1663C29.5547 84.0019 29.1719 81.8964 29.2437 81.8166C29.2836 81.7847 34.5394 87.1442 35.4725 88.1731C37.3069 90.1909 38.0327 91.5547 38.2161 93.3571L38.2719 93.9393L38.591 94.051C39.7314 94.4657 43.113 95.3829 43.2726 95.3351C43.3124 95.3191 43.1689 95.1755 42.9535 95.016C41.6535 94.0191 39.54 91.4111 38.7265 89.808C38.4554 89.2577 38.0725 88.213 38.0725 88.0136C38.0725 87.9737 38.6388 88.2289 39.3327 88.5718C40.0186 88.9148 41.2149 89.4332 41.9805 89.7203C44.748 90.7651 45.6811 91.2357 46.7578 92.113C47.683 92.8706 48.337 93.8038 48.9272 95.2074C49.1106 95.662 49.302 96.0768 49.3419 96.1246C49.3977 96.2044 49.9401 96.2283 51.5511 96.2283V97.8234H50.2192L49.7088 98.4375C48.8075 99.5142 47.8983 100.24 46.7259 100.814C44.7719 101.771 42.2836 102.489 39.9867 102.768C37.9449 103.007 33.2873 103.191 33.2873 103.023C33.2873 102.904 34.5235 102.242 37.9529 100.543C42.6345 98.2142 43.2885 97.9271 44.8437 97.5203L45.4259 97.3688L44.8437 97.2731C43.791 97.1056 41.7094 96.6351 40.6008 96.324L39.5321 96.0209L38.7824 96.6749C37.1075 98.1584 35.2891 98.7565 32.2265 98.8363C30.4001 98.8841 29.3713 98.8044 27.8241 98.4933C26.7553 98.278 20.5903 96.4516 20.5504 96.34C20.5345 96.3001 21.1087 96.1645 21.8265 96.0449C22.5363 95.9173 23.8523 95.67 24.7535 95.5025C27.7842 94.9283 28.9406 94.7209 29.7382 94.6252C30.9345 94.4737 34.0928 94.4897 35.1136 94.6571C35.5682 94.7289 35.959 94.7847 35.975 94.7688C35.983 94.7528 35.7916 94.6571 35.5363 94.5535C33.9652 93.9234 30.3603 91.9854 28.8529 90.9645C28.6136 90.797 28.5179 90.7571 28.6057 90.8608C28.7412 91.0203 28.7412 91.0283 28.0872 91.3074C27.7204 91.459 27.2259 91.6424 26.9866 91.7142C25.7504 92.0811 23.7406 92.1847 22.2811 91.9614C21.021 91.77 18.5885 90.9326 17.1529 90.1909C15.6934 89.4412 10.6369 85.8761 10.6369 85.605C10.6369 85.3099 17.9026 85.9878 21.1645 86.5939C22.0259 86.7534 22.1854 86.8093 23.7167 87.5829C25.0566 88.2528 25.2879 88.3485 24.9928 88.1093C23.4535 86.8412 21.4118 84.8553 20.024 83.2522C19.4498 82.5902 19.3701 82.5264 19.1946 82.5982C19.0909 82.6381 18.5645 82.6939 18.0222 82.7178C17.2566 82.7577 16.8658 82.7418 16.2516 82.6301C15.2547 82.4547 13.8032 82.016 13.0694 81.681C11.3547 80.8835 8.53138 78.3872 6.75285 76.0982C6.23444 75.4362 5.44487 74.4553 4.99825 73.9129C3.8737 72.5651 3.89763 72.4694 5.23751 72.9479C5.70806 73.1154 6.74487 73.4184 7.53445 73.6178C9.46451 74.1123 10.3418 74.4234 11.9529 75.2129C13.4443 75.9467 14.4492 76.5528 15.3026 77.2307C15.7572 77.5976 15.8289 77.6375 15.7013 77.4461C14.9437 76.2896 12.6308 71.9031 12.6308 71.608C12.6308 71.5362 12.5191 71.5043 12.2559 71.5043C11.8492 71.5043 10.5891 71.0976 9.61605 70.6589C8.60316 70.1964 7.48659 69.3988 6.52954 68.4338C5.57248 67.4767 5.12585 66.8706 4.2964 65.4031C3.61849 64.1908 0.651611 58.1933 0.683513 58.0976C0.70744 58.0178 2.46204 59.0466 3.65837 59.8442C8.32402 62.9706 9.00991 63.5049 9.90316 64.6853C10.1026 64.9485 10.294 65.1957 10.3259 65.2356C10.3578 65.2675 10.278 64.9006 10.1504 64.4141C9.85531 63.2577 9.49641 61.535 9.28108 60.1792C9.18537 59.589 9.10561 59.1025 9.09764 59.1025C8.93813 59.0785 7.9412 58.5282 7.36696 58.1534C4.67125 56.3828 3.27554 53.7669 2.35039 48.7343C2.12707 47.5301 1.67247 45.2092 1.56879 44.7227C1.53689 44.6031 1.56082 44.5472 1.64855 44.5472C1.84793 44.5472 4.51174 46.7166 5.0142 47.2828C5.97923 48.3755 7.41482 50.5129 8.27617 52.1319L8.72279 52.9613V52.2436C8.72279 51.2705 8.85838 49.1331 9.00193 47.8012C9.15347 46.4215 9.15347 46.4853 8.93813 46.4294C8.83445 46.4055 8.53138 46.246 8.26022 46.0705C6.60929 45.0018 5.77984 43.4386 5.41297 40.719C5.27739 39.738 5.26144 37.1221 5.37309 35.4951C5.42095 34.881 5.48475 33.7245 5.52463 32.919C5.55653 32.1214 5.61236 31.4435 5.64426 31.4116C5.73996 31.3159 5.99518 31.6349 6.52954 32.5282C6.82463 33.0147 7.40684 33.9239 7.81359 34.546C8.82647 36.0693 9.67985 38.0791 10.1185 39.9613C10.2142 40.4 10.3179 40.703 10.3418 40.6392C10.3657 40.5754 10.5173 40.073 10.6768 39.5227C11.0516 38.2705 11.5062 36.9386 11.9289 35.9018C12.1044 35.4552 12.2639 35.0405 12.2878 34.9767C12.3118 34.9128 12.232 34.9767 12.1044 35.1202L11.8731 35.3834L11.2989 34.3625C10.6369 33.1742 10.3897 32.592 10.1664 31.6828C9.6639 29.6411 9.94304 27.7748 11.4345 23.0932C12.3756 20.1502 12.4872 19.8073 12.551 19.8791C12.5829 19.911 12.8062 20.5729 13.0535 21.3386C14.2259 25.0233 14.3694 25.5975 14.4651 27.1368C14.5289 28.1895 14.4651 29.5214 14.3056 30.3429C14.2657 30.5822 14.2418 30.7895 14.2578 30.8135C14.2817 30.8294 14.3854 30.6699 14.497 30.4466C15.0872 29.2901 16.6664 26.8417 17.8308 25.3024L18.5406 24.3533L17.9584 24.8478C17.5915 25.1509 17.3204 25.3263 17.2167 25.3104C16.6903 25.2306 16.2596 22.7901 16.451 20.9797C16.7461 18.3079 17.4161 17.0717 20.9651 12.6693C21.3878 12.1349 21.6989 11.8159 21.7308 11.8717C21.7547 11.9275 21.8425 12.6693 21.9222 13.5226C22.2253 16.8324 21.8744 19.265 20.7737 21.3944L20.3829 22.1521L21.4437 21.0435C22.329 20.1183 23.7326 18.8024 24.6977 17.9809L24.929 17.7895L24.7535 17.2711C24.5063 16.5533 24.5063 15.4686 24.7455 14.6073C24.9688 13.8018 25.5351 12.7091 26.1253 11.9196C26.6437 11.2337 27.8958 9.96556 28.6216 9.40728C29.6106 8.63366 32.3143 6.90298 32.5216 6.90298C32.5854 6.90298 31.7081 10.1889 31.4529 10.9306C31.0461 12.0711 30.3842 13.2913 29.6903 14.1846C29.5707 14.3441 29.8658 14.1846 30.7032 13.6343C31.3572 13.2116 32.3063 12.5975 32.8167 12.2705L33.7498 11.6883L33.9492 11.0263C34.4038 9.57476 35.2413 8.64163 36.7566 7.87598C37.6817 7.41341 38.2799 7.19807 40.4253 6.58396Z" fill="#F5CC4F"/>
<path d="M31.2029 43.8183H32.7101V51.443H31.2029V43.8183ZM35.6948 43.8183L39.2744 48.9051V43.8183H40.7816V51.443H39.3519L35.6948 46.4338V51.443H34.1876V43.8183H35.6948ZM42.3393 43.8183H45.2429C47.5702 43.8183 49.2326 45.3809 49.2326 47.6417C49.2326 49.8804 47.5702 51.443 45.2429 51.443H42.3393V43.8183ZM45.2429 45.2369H43.8465V50.0245H45.2429C46.6947 50.0245 47.7254 49.0935 47.7254 47.6417C47.7254 46.1789 46.6947 45.2369 45.2429 45.2369ZM50.4455 43.8183H51.9527V51.443H50.4455V43.8183ZM54.3943 51.443H52.7431L55.8572 43.8183H57.8742L60.9883 51.443H59.3149L58.5502 49.4925H55.1701L54.3943 51.443ZM56.8657 45.2369L55.7021 48.1515H58.0183L56.8657 45.2369ZM68.2811 49.4371C68.2811 48.9051 67.7935 48.7278 67.0067 48.4951L66.0314 48.2291C64.8345 47.9077 63.7263 47.4533 63.7263 45.9905C63.7263 44.5054 65.0229 43.6853 66.5855 43.6853C67.9487 43.6853 68.8574 44.0954 69.345 44.3946V46.0126C68.669 45.5693 67.5386 45.1371 66.5412 45.1371C65.7765 45.1371 65.3443 45.4142 65.3443 45.8797C65.3443 46.4227 65.8873 46.6 66.7074 46.8327L67.5275 47.0655C68.7355 47.4201 69.8327 47.8301 69.8327 49.3373C69.8327 50.7781 68.6025 51.5538 66.9402 51.5538C65.6214 51.5538 64.5242 51.1216 63.9701 50.7448V49.1822C64.7015 49.7031 65.9871 50.1574 67.0177 50.1574C67.9376 50.1574 68.2811 49.8804 68.2811 49.4371ZM74.6553 51.576C72.3391 51.576 70.6102 49.958 70.6102 47.6417C70.6102 45.3255 72.3391 43.7075 74.6553 43.7075C75.7857 43.7075 76.5061 43.9846 77.1377 44.3503V45.9129C76.5947 45.525 75.7857 45.1261 74.744 45.1261C73.2589 45.1261 72.2061 46.1235 72.2061 47.6417C72.2061 49.16 73.2589 50.1464 74.744 50.1464C75.7857 50.1464 76.5947 49.7585 77.1377 49.3706V50.9221C76.5061 51.2878 75.7857 51.576 74.6553 51.576ZM78.2596 43.8183H79.7668V46.8771H83.3685V43.8183H84.8757V51.443H83.3685V48.2956H79.7668V51.443H78.2596V43.8183ZM90.0097 51.5538C87.76 51.5538 86.0866 49.9358 86.0866 47.6417C86.0866 45.3255 87.76 43.7075 90.0097 43.7075C92.2484 43.7075 93.9107 45.3255 93.9107 47.6417C93.9107 49.9358 92.2484 51.5538 90.0097 51.5538ZM90.0097 50.0466C91.3285 50.0466 92.3149 49.0935 92.3149 47.6417C92.3149 46.1789 91.3285 45.2147 90.0097 45.2147C88.6798 45.2147 87.6824 46.1789 87.6824 47.6417C87.6824 49.0935 88.6909 50.0466 90.0097 50.0466ZM98.6895 51.5538C96.4397 51.5538 94.7663 49.9358 94.7663 47.6417C94.7663 45.3255 96.4397 43.7075 98.6895 43.7075C100.928 43.7075 102.59 45.3255 102.59 47.6417C102.59 49.9358 100.928 51.5538 98.6895 51.5538ZM98.6895 50.0466C100.008 50.0466 100.995 49.0935 100.995 47.6417C100.995 46.1789 100.008 45.2147 98.6895 45.2147C97.3596 45.2147 96.3622 46.1789 96.3622 47.6417C96.3622 49.0935 97.3707 50.0466 98.6895 50.0466ZM103.812 43.8183H105.319V50.0245H109.264V51.443H103.812V43.8183ZM30.6281 65.443L28.4892 60.2343V65.443H26.982V57.8183H29.0544L31.4704 63.9912L33.8864 57.8183H35.9588V65.443H34.4516V60.2343L32.3127 65.443H30.6281ZM37.5341 57.8183H43.3302V59.2369H39.0413V60.8881H42.776V62.3067H39.0413V64.0245H43.3302V65.443H37.5341V57.8183ZM44.5471 57.8183H47.9716C49.7559 57.8183 50.9306 58.5941 50.9306 60.3008C50.9306 61.6528 49.9664 62.4729 48.6255 62.5616L51.0525 65.443H49.1574L46.9299 62.5727H46.0543V65.443H44.5471V57.8183ZM47.9273 59.2369H46.0543V61.409H47.9273C48.8028 61.409 49.3458 61.0765 49.3458 60.3229C49.3458 59.5693 48.8139 59.2369 47.9273 59.2369ZM52.123 57.8183H53.6302V65.443H52.123V57.8183ZM54.5314 59.2369V57.8183H60.8594V59.2369H58.4435V65.443H56.9363V59.2369H54.5314ZM64.9572 65.443H63.3059L66.4201 57.8183H68.4371L71.5512 65.443H69.8778L69.1131 63.4925H65.733L64.9572 65.443ZM67.4286 59.2369L66.2649 62.1515H68.5811L67.4286 59.2369ZM73.6473 65.443L71.7412 57.8183H73.5587L74.678 63.8471L76.3736 57.8183H78.1135L79.798 63.8471L80.9174 57.8183H82.7349L80.8287 65.443H78.8117L77.238 59.6469L75.6643 65.443H73.6473ZM84.5786 65.443H82.9273L86.0415 57.8183H88.0585L91.1726 65.443H89.4992L88.7345 63.4925H85.3544L84.5786 65.443ZM87.05 59.2369L85.8863 62.1515H88.2025L87.05 59.2369ZM91.961 57.8183H95.3855C97.1697 57.8183 98.3444 58.5941 98.3444 60.3008C98.3444 61.6528 97.3803 62.4729 96.0393 62.5616L98.4664 65.443H96.5713L94.3437 62.5727H93.4682V65.443H91.961V57.8183ZM95.3411 59.2369H93.4682V61.409H95.3411C96.2166 61.409 96.7597 61.0765 96.7597 60.3229C96.7597 59.5693 96.2277 59.2369 95.3411 59.2369ZM99.5368 57.8183H102.44C104.768 57.8183 106.43 59.3809 106.43 61.6417C106.43 63.8804 104.768 65.443 102.44 65.443H99.5368V57.8183ZM102.44 59.2369H101.044V64.0245H102.44C103.892 64.0245 104.923 63.0935 104.923 61.6417C104.923 60.1789 103.892 59.2369 102.44 59.2369ZM111.799 63.4371C111.799 62.9051 111.311 62.7278 110.524 62.4951L109.549 62.2291C108.352 61.9077 107.244 61.4533 107.244 59.9905C107.244 58.5054 108.541 57.6853 110.103 57.6853C111.466 57.6853 112.375 58.0954 112.863 58.3946V60.0126C112.187 59.5693 111.056 59.1371 110.059 59.1371C109.294 59.1371 108.862 59.4142 108.862 59.8797C108.862 60.4227 109.405 60.6 110.225 60.8327L111.045 61.0655C112.253 61.4201 113.35 61.8301 113.35 63.3373C113.35 64.7781 112.12 65.5538 110.458 65.5538C109.139 65.5538 108.042 65.1216 107.488 64.7448V63.1822C108.219 63.7031 109.505 64.1574 110.535 64.1574C111.455 64.1574 111.799 63.8804 111.799 63.4371Z" fill="#F5CC4F"/>
<path d="M118.387 12.5914C118.403 13.1815 118.442 14.4576 118.466 15.4227C118.522 17.5601 118.634 18.8043 118.833 19.5938C119.025 20.3435 119.575 21.5159 120.157 22.3932C120.819 23.3981 122.741 25.2724 123.108 25.2724C123.714 25.2724 124.097 21.6116 123.682 19.7294C123.355 18.222 122.582 16.7306 121.234 14.984C120.723 14.33 119.017 12.2644 118.562 11.7619L118.339 11.5147L118.387 12.5914Z" fill="#F5CC4F"/>
<path d="M127.359 85.6228C122.406 85.9737 120.915 86.1572 119.136 86.6038C116.847 87.178 115.045 88.0952 113.011 89.6983C112.245 90.3044 111.99 90.7271 112.166 91.0701C112.469 91.6523 114.965 92.1946 116.783 92.075C118.331 91.9633 120.436 91.405 121.984 90.6793C123.762 89.8418 129.241 86.2688 129.409 85.8302C129.433 85.7664 129.409 85.6786 129.345 85.6388C129.241 85.575 128.157 85.567 127.359 85.6228Z" fill="#F5CC4F"/>
<path d="M89.9222 97.7695H88.351V96.1741L90.7357 96.1265L91.2142 96.0707L91.1743 95.8155C91.0946 95.329 91.8203 94.0928 92.9289 92.8486C94.1253 91.4928 95.1142 90.8547 97.3314 90.0332C99.094 89.3713 99.8836 89.0443 101.04 88.494C101.63 88.2069 102.125 87.9836 102.141 87.9995C102.204 88.0633 101.861 89.1878 101.63 89.6743C100.857 91.3173 99.1099 93.5903 97.786 94.6989C97.467 94.9541 97.2118 95.1774 97.2118 95.1854C97.2118 95.2412 99.7878 94.5234 100.793 94.1964L101.949 93.8136L102.045 93.2155C102.356 91.2056 103.114 89.9136 105.57 87.2099C106.782 85.878 111.033 81.7627 111.073 81.8823C111.113 82.0179 110.698 84.4026 110.491 85.2559C110.004 87.1701 109.055 89.3633 108.162 90.6155C108.011 90.8308 107.899 91.0142 107.915 91.0302C107.963 91.086 110.108 89.7382 111.265 88.9247L112.421 88.1112L112.477 86.8989C112.652 82.8952 113.011 81.6032 114.63 79.1228C115.22 78.2295 116.042 76.7541 117.142 74.6406L117.908 73.1651L118.02 74.2418C118.076 74.84 118.131 76.3473 118.131 77.6314C118.147 80.1197 118.06 81.1007 117.677 82.7756L117.485 83.613L117.964 83.0946C118.57 82.4326 119.942 80.8216 120.484 80.1277L120.899 79.6013L120.556 78.5725C120.03 77.0571 119.918 76.2756 119.966 74.6645C120.006 73.1731 120.141 72.2878 120.708 69.7995C121.545 66.1307 121.704 65.3571 121.808 64.4719C121.864 63.9614 121.944 63.5148 121.992 63.4669C122.43 63.0283 123.292 65.4289 123.93 68.8982C124.145 70.0627 124.233 72.4792 124.097 73.7553C124.049 74.2418 123.985 74.7044 123.962 74.7841C123.706 75.5817 125.748 71.5062 126.434 69.8393L126.881 68.7547L126.506 68.2443C125.604 67.0559 124.568 64.5596 124.336 63.0363C124.161 61.8479 123.93 59.0406 123.73 55.6191C123.595 53.3381 123.595 52.6203 123.738 52.5724C123.914 52.5166 124.879 53.9602 126.29 56.4246C127.814 59.0645 128.276 60.2688 128.508 62.1271C128.571 62.6614 128.627 62.8847 128.659 62.7571C128.946 61.5449 129.329 59.1602 129.504 57.4534L129.568 56.8154L129.074 56.289C127.582 54.6939 126.195 52.4289 125.206 49.9565C124.4 47.9467 122.558 42.0927 122.685 41.9571C122.765 41.8853 127.208 46.3835 127.846 47.181C128.523 48.0344 129.345 49.8369 129.616 51.0731C129.704 51.4559 129.664 50.1638 129.552 48.9596C129.441 47.7313 129.074 44.9957 128.994 44.7326C128.97 44.6687 128.723 44.4773 128.436 44.3098C127.208 43.5921 125.078 41.654 123.993 40.2583C123.706 39.8914 123.244 39.1736 122.957 38.6712C122.008 36.9724 121.011 35.5368 119.83 34.165C119.208 33.4473 118.937 33.0325 119.017 32.9448C119.208 32.7614 122.454 34.4043 124.145 35.5368C124.512 35.7761 125.086 36.2307 125.421 36.5497C125.947 37.0282 126.274 37.3632 127.335 38.5117C127.542 38.735 126.426 35.7761 125.748 34.2847L125.469 33.6785L124.958 33.535C124.073 33.2957 121.816 31.9957 120.237 30.8233C119.543 30.3129 115.819 27.2423 114.542 26.1337C114.088 25.7429 113.721 25.3681 113.721 25.3043C113.721 24.9294 116.56 25.5755 119.057 26.5245C120.054 26.8994 121.433 27.6012 122.039 28.0319C122.247 28.1834 122.414 28.2871 122.414 28.2632C122.414 28.1436 120.66 25.7669 119.854 24.7859L119.551 24.419L118.722 24.3632C116.146 24.1957 114.774 23.781 110.93 22.0104C109.725 21.4521 108.449 20.8699 108.098 20.7264C107.285 20.3834 107.101 20.2638 107.101 20.0883C107.101 19.857 107.524 19.7613 108.888 19.6896C111.376 19.546 113.944 19.8331 115.675 20.4472C115.866 20.511 115.436 20.1123 114.104 19.0037C112.596 17.7356 112.628 17.7595 112.246 17.8871C111.344 18.2061 107.061 18.254 104.988 17.9828C104.461 17.911 103.193 17.7595 102.165 17.6558C99.1339 17.3288 98.8388 17.2092 99.8676 16.7147C100.873 16.2442 103.776 15.4227 105.315 15.1834C106.224 15.0319 107.731 15.0558 108.569 15.2233C108.784 15.2711 108.968 15.2951 108.976 15.2871C108.992 15.2711 108.194 14.7129 107.213 14.0429L105.427 12.8147L104.597 12.6313C102.914 12.2484 101.662 11.5625 100.442 10.3263C99.1418 9.02635 96.9725 6.21898 96.9725 5.8521C96.9725 5.73247 97.0204 5.71652 97.2915 5.76437C98.0093 5.87603 102.236 7.19996 102.946 7.53493C105.004 8.49996 106.392 10.119 106.599 11.8098L106.663 12.3043L108.377 13.2374C110.012 14.1307 110.539 14.4337 111.169 14.8405C111.424 15.008 111.408 14.976 110.993 14.4895C109.542 12.7748 109.063 11.7699 108.298 8.81898C107.963 7.55088 107.899 7.00855 108.082 7.00855C108.242 7.00855 110.068 8.14904 110.93 8.79506C112.269 9.79199 114.184 11.8178 114.909 13.0141C115.523 14.019 115.667 14.6251 115.619 16.0687C115.587 17.1932 115.492 17.5362 115.165 17.6159C114.997 17.6558 115.045 17.7196 115.723 18.2938C116.76 19.1632 119.344 21.7712 120.285 22.8877C122.454 25.4558 124.32 28.1914 125.804 30.9589C126.051 31.4294 126.266 31.8123 126.282 31.8123C126.298 31.8123 126.258 31.6607 126.195 31.4693C125.916 30.7196 125.916 25.7669 126.195 24.5546C126.498 23.1988 127.622 20.4871 127.869 20.4871C128.021 20.4871 128.109 20.6945 128.619 22.2178C129.433 24.6264 130.174 27.3859 130.398 28.8055C130.446 29.1485 130.469 29.6828 130.446 30.0018C130.31 31.6448 129.162 34.492 128.436 34.9706C128.141 35.162 127.973 35.0104 127.439 34.0614C126.936 33.1601 126.801 33.0166 127.192 33.7902C127.558 34.516 128.587 37.1798 128.978 38.4C129.345 39.5325 129.68 40.7129 130.023 42.1006L130.214 42.8583L130.222 41.3829C130.238 39.2693 130.326 38.8307 131.028 37.3313C131.857 35.5927 134.577 31.0227 134.649 31.262C134.704 31.4454 134.936 34.4522 135.031 36.2626C135.263 40.5295 134.601 43.5362 133.046 45.2031C132.463 45.8411 131.865 46.3037 131.443 46.4552C131.171 46.543 131.131 46.535 130.956 46.3835L130.765 46.208L130.812 46.4074C130.988 47.1571 131.267 50.8896 131.267 52.6283L131.275 53.705L131.498 53.0988C132.272 51.0172 133.381 49.5019 136.292 46.535C137.783 45.0117 138.565 44.3099 138.716 44.3577C138.868 44.4056 138.86 44.7006 138.684 45.2669C138.597 45.562 138.341 46.7743 138.118 47.9626C137.512 51.2724 137.121 52.6442 136.316 54.2632C135.287 56.3129 133.987 57.6369 131.929 58.7056C131.514 58.9129 131.243 59.0086 131.092 58.9927C130.884 58.9608 130.868 58.9767 130.828 59.3197C130.613 60.9228 130.103 63.3952 129.648 65.0461C129.504 65.5884 129.385 66.0191 129.401 66.0031C129.409 65.9952 129.584 65.732 129.792 65.4289C130.661 64.1528 131.73 63.1479 133.572 61.8878C135.55 60.524 139.083 58.2909 139.25 58.2909C139.394 58.2909 139.314 58.578 138.916 59.4792C137.927 61.7123 135.662 66.035 134.92 67.1117C133.795 68.7547 131.746 70.2461 129.489 71.0915C128.38 71.4982 127.877 71.5939 127.694 71.4185C127.614 71.3467 127.527 71.2909 127.503 71.2909C127.479 71.2909 127.375 71.4982 127.271 71.7535C126.697 73.197 124.815 76.6584 123.738 78.2295C123.507 78.5725 123.523 78.5645 124.145 77.9983C125.357 76.9056 127.104 75.7731 128.978 74.8798C130.27 74.2657 131.044 73.9786 132.416 73.6357C133.03 73.4841 134.098 73.197 134.776 72.9976C135.454 72.7982 136.076 72.6547 136.164 72.6627C136.419 72.7025 136.395 72.862 136.116 73.0933C135.35 73.7393 134.433 74.7841 133.739 75.797C132.408 77.743 131.411 78.732 129.034 80.4308C127.766 81.332 127.136 81.6749 126.043 82.0418C124.767 82.4645 123.69 82.6559 122.534 82.6559C121.306 82.6559 121.011 82.5602 121.035 82.1774C121.05 81.9381 121.042 81.9461 120.715 82.3369C116.05 87.8719 110.236 92.1468 103.911 94.7149C103.233 94.986 102.699 95.2173 102.731 95.2173C102.763 95.2173 103.114 95.1296 103.52 95.0179C104.398 94.7866 105.865 94.5314 107.046 94.4198C108.338 94.2922 110.3 94.4915 113.841 95.1057C115.627 95.4167 118.49 95.9829 118.889 96.1026C119.2 96.2063 119.216 96.3737 118.929 96.5253C118.211 96.8922 113.075 98.3995 111.655 98.6627C110.475 98.8781 107.628 98.894 106.32 98.6946C104.605 98.4314 102.523 97.5063 101.423 96.5093C101.072 96.1983 101.032 95.9351 101.303 95.7517C101.399 95.6799 101.032 95.7676 100.482 95.9431C99.2535 96.3339 97.2995 96.8204 95.7921 97.0995L94.6516 97.3149L95.3854 97.5063C97.7381 98.1204 100.123 99.1014 101.877 100.202C102.819 100.792 103.313 101.047 104.031 101.319C104.82 101.614 106.647 102.539 106.95 102.794C107.452 103.217 107.333 103.225 103.943 103.001C99.5007 102.706 99.086 102.642 96.8927 101.981C93.4154 100.928 93.1124 100.768 91.0308 98.8142L89.9222 97.7695Z" fill="#F5CC4F"/>
<path d="M60.6695 100.54H54.1799V99.2472L57.5719 95.9192C58.3655 95.1384 58.7751 94.6776 58.7751 94.1016C58.7751 93.5256 58.3271 93.18 57.5719 93.18C56.4071 93.18 55.2295 93.8968 54.5255 94.4984V92.7192C55.0631 92.2968 56.2791 91.6056 57.7255 91.6056C59.4407 91.6056 60.5415 92.5784 60.5415 94.012C60.5415 95.2664 59.6839 96.0216 58.7495 96.8536L56.3943 98.9912H60.6695V100.54ZM65.7262 100.668C63.7038 100.668 62.0398 99.2728 62.0398 96.1368C62.0398 93.0136 63.7038 91.6056 65.7262 91.6056C67.7486 91.6056 69.4254 93.0136 69.4254 96.1368C69.4254 99.2728 67.7486 100.668 65.7262 100.668ZM65.7262 99.0296C66.9038 99.0296 67.6334 98.0568 67.6334 96.1368C67.6334 94.2168 66.9038 93.2568 65.7262 93.2568C64.5614 93.2568 63.8318 94.2168 63.8318 96.1368C63.8318 98.0568 64.5614 99.0296 65.7262 99.0296ZM71.013 91.7336H73.8162V100.54H72.1138V93.2568H70.4626L71.013 91.7336ZM77.7018 100.54H75.769L79.6986 93.2824H75.0138V91.7336H81.5418V93.1416L77.7018 100.54Z" fill="#F5CC4F"/>
<path d="M52.5106 4.23526H54.9826C56.2706 4.23526 57.1186 4.79526 57.1186 6.02726C57.1186 7.00326 56.4226 7.59526 55.4546 7.65926L57.2066 9.73926H55.8386L54.2306 7.66726H53.5986V9.73926H52.5106V4.23526ZM54.9506 5.25926H53.5986V6.82726H54.9506C55.5826 6.82726 55.9746 6.58726 55.9746 6.04326C55.9746 5.49926 55.5906 5.25926 54.9506 5.25926ZM58.6033 9.73926H57.4113L59.6593 4.23526H61.1153L63.3633 9.73926H62.1553L61.6033 8.33126H59.1633L58.6033 9.73926ZM60.3873 5.25926L59.5473 7.36326H61.2193L60.3873 5.25926ZM64.9485 4.23526L67.5325 7.90726V4.23526H68.6205V9.73926H67.5885L64.9485 6.12326V9.73926H63.8605V4.23526H64.9485ZM74.529 9.73926H73.233L71.825 7.46726H70.833V9.73926H69.745V4.23526H70.833V6.50726H71.761L73.169 4.23526H74.409L72.665 6.85926L74.529 9.73926ZM77.6791 0.932857H80.4823V9.73926H78.7799V2.45606H77.1287L77.6791 0.932857Z" fill="#F5CC4F"/>
</svg>
