
<svg width="249" height="307" viewBox="0 0 249 307" fill="none" xmlns="http://www.w3.org/2000/svg">
<path opacity="0.4" d="M54.4612 -183.01C49.3078 -184.549 44.3888 -186.047 43.5299 -186.411C41.6169 -187.14 41.695 -187.14 41.0313 -186.695C39.1574 -185.48 45.521 -176.328 55.242 -166.204C64.6897 -156.363 71.4437 -152.435 80.6181 -151.423C82.8434 -151.139 84.8345 -151.058 85.0687 -151.18C85.2639 -151.301 88.1139 -149.317 91.3932 -146.725C94.2376 -144.504 97.4834 -141.955 99.2625 -140.558L100.021 -139.962C101.466 -138.828 102.598 -137.856 102.559 -137.816C102.52 -137.775 101.427 -137.978 100.138 -138.302C96.8589 -139.152 85.381 -139.517 80.54 -138.909C78.4319 -138.626 74.8011 -137.978 72.4587 -137.411C64.0651 -135.467 50.8695 -130.284 51.2208 -129.069C51.4941 -128.259 53.7975 -127.57 56.257 -127.57C58.9508 -127.53 66.0561 -126.76 79.0565 -125.1C95.7267 -122.954 106.892 -123.035 114.583 -125.343L117.706 -126.274L120.049 -124.371C122.86 -122.144 130.199 -115.745 132.932 -113.154L134.884 -111.331L133.44 -111.939C130.707 -113.073 125.124 -114.611 121.415 -115.219C113.373 -116.555 94.9069 -116.636 91.4323 -115.381C90.1049 -114.854 89.7926 -113.802 90.7296 -112.992C91.0028 -112.749 94.9459 -110.805 99.3965 -108.74C103.886 -106.634 110.523 -103.475 114.193 -101.693C126.959 -95.4162 138.359 -92.298 148.509 -92.298C152.179 -92.298 152.257 -92.2575 153.272 -91.0831C157.41 -86.3046 169.669 -68.3647 167.99 -69.6201C167.561 -69.9441 165.804 -71.24 164.125 -72.4953C155.497 -78.8937 145.152 -83.5508 132.542 -86.669C126.647 -88.1269 122.86 -88.4104 122.664 -87.3979C122.508 -86.588 123.719 -85.3731 129.809 -80.2301C132.581 -77.8409 137.148 -73.8317 139.959 -71.2399C146.128 -65.53 150.149 -62.2903 156.551 -57.7547C165.648 -51.3563 175.096 -46.1323 179.234 -45.2413L181.498 -44.7554L183.255 -40.7057C186.183 -33.7809 192.078 -17.5419 192.078 -16.246C192.078 -16.1245 191.336 -17.0964 190.438 -18.4328C187.667 -22.5229 183.411 -27.5445 180.561 -30.0957C176.033 -34.1049 162.72 -42.6901 153.701 -47.3876C148.821 -49.9389 147.572 -50.3843 147.572 -49.4934C147.572 -49.129 149.563 -46.0917 151.984 -42.7306C154.443 -39.3694 159.05 -32.6065 162.212 -27.7065C174.315 -9.11865 181.069 -1.05991 190.673 6.39142C194.577 9.42865 197.075 10.9675 198.051 10.9675C198.637 10.9675 199.886 18.6618 200.901 28.5834C201.448 34.0504 202.346 50.2894 202.072 50.5324C201.994 50.6134 201.643 49.277 201.253 47.5356C199.066 37.1281 194.967 28.1379 189.033 20.6866C184.973 15.5841 167.678 -1.9913 166.702 -1.9913C166.546 -1.9913 166.546 -1.22189 166.78 -0.290466C167.209 1.73434 171.035 14.9766 173.378 22.5494C174.237 25.4247 175.174 28.4214 175.369 29.1908C176.228 32.228 180.366 43.7695 181.537 46.3613C183.099 49.7629 188.096 57.4977 193.835 65.435C199.144 72.7243 200.003 73.6557 200.862 72.9268C201.37 72.4814 201.409 72.5623 201.253 73.5747C201.174 74.2227 200.901 76.6525 200.667 79.0012C199.847 87.06 197.934 98.318 195.904 106.944L195.006 110.791L194.772 105.121C194.225 93.1344 191.883 85.6021 184.309 71.5094C177.633 59.1176 172.05 51.0183 170.996 52.1117C170.02 53.1241 172.948 95.9287 174.705 106.62C176.15 115.448 182.435 128.69 186.769 132.051L188.096 133.104L186.417 137.316C183.841 143.957 181.732 148.695 178.414 155.499C175.408 161.614 171.074 169.51 171.543 167.931C171.699 167.526 172.246 164.529 172.831 161.249C174.198 153.433 174.237 146.549 173.026 139.138C171.777 131.727 169.63 121.603 168.224 116.42C167.014 112.006 164.359 105.162 163.579 104.352C162.954 103.704 162.407 104.797 162.407 106.579C162.407 109.373 160.69 118.445 157.332 133.266C153.78 149.1 152.452 158.617 152.765 165.866C153.155 173.884 154.834 182.469 156.903 186.883L158.035 189.232L154.912 193.282C151.359 197.898 143.59 206.969 140.545 210.007L138.554 212.032L139.725 209.561C142.497 203.77 143.278 197.25 143.278 180.242C143.278 167.972 142.887 156.349 142.458 156.349C142.302 156.349 140.506 159.71 138.437 163.8C134.572 171.535 131.019 178.055 127.076 184.697C118.917 198.384 113.998 216.567 115.52 227.096C115.832 229.08 116.067 230.984 116.106 231.429C116.184 232.604 105.487 240.136 94.3213 246.818L92.4473 247.952L93.9699 245.805C99.4746 237.949 102.832 229.728 106.229 216C107.673 210.088 109.547 199.397 109.196 198.992C109 198.83 83.2729 226.043 78.7052 231.267C69.7259 241.513 66.1732 248.438 65.2753 257.59L65.002 260.546L63.4404 261.113C57.8577 263.219 41.3046 267.876 40.5238 267.633C40.3286 267.552 41.0313 266.823 42.0854 266.013C48.449 260.951 58.7946 247.709 62.7767 239.569C64.1041 236.775 65.978 231.47 65.978 230.457C65.978 230.255 63.2062 231.551 59.8097 233.292C56.4522 235.033 50.5962 237.666 46.8483 239.124C33.3013 244.429 28.7336 246.818 23.4632 251.272C18.9345 255.12 15.7332 259.858 12.8443 266.985C11.9463 269.293 11.0094 271.399 10.8141 271.642C10.5409 272.047 7.88614 272.169 0 272.169V280.268H6.51973L9.01831 283.386C13.4299 288.853 17.8804 292.538 23.6194 295.454C33.1842 300.313 45.3648 303.958 56.6084 305.375C66.6027 306.59 89.4022 307.522 89.4022 306.671C89.4022 306.064 83.351 302.703 66.5636 294.077C43.647 282.252 40.4457 280.794 32.8329 278.729L29.9829 277.959L32.8329 277.474C37.9862 276.623 48.1757 274.234 53.6023 272.654L58.8337 271.116L62.5034 274.436C70.7019 281.969 79.6031 285.006 94.5945 285.411C103.535 285.654 108.571 285.249 116.145 283.669C121.376 282.576 151.554 273.302 151.749 272.735C151.828 272.533 149.017 271.845 145.503 271.237C142.028 270.589 135.587 269.334 131.175 268.483C116.34 265.568 110.679 264.515 106.775 264.029C100.919 263.259 85.4591 263.34 80.462 264.191C78.2367 264.555 76.3237 264.839 76.2456 264.758C76.2066 264.677 77.1435 264.191 78.3928 263.664C86.0838 260.465 103.73 250.624 111.109 245.441C112.28 244.591 112.748 244.388 112.319 244.915C111.655 245.724 111.655 245.765 114.856 247.182C116.652 247.952 119.073 248.883 120.244 249.248C126.295 251.11 136.133 251.637 143.278 250.503C149.446 249.531 161.353 245.279 168.381 241.513C175.525 237.706 200.277 219.604 200.277 218.227C200.277 216.729 164.711 220.171 148.743 223.249C144.527 224.059 143.746 224.342 136.25 228.271C129.692 231.672 128.56 232.158 130.004 230.943C137.539 224.504 147.533 214.421 154.326 206.281C157.137 202.92 157.527 202.596 158.386 202.96C158.894 203.163 161.471 203.446 164.125 203.568C167.873 203.77 169.786 203.689 172.792 203.122C177.672 202.231 184.778 200.004 188.369 198.303C196.763 194.254 210.583 181.578 219.289 169.956C221.827 166.595 225.692 161.614 227.878 158.86C233.383 152.016 233.266 151.53 226.707 153.96C224.403 154.81 219.328 156.349 215.463 157.362C206.015 159.872 201.721 161.452 193.835 165.461C186.534 169.186 181.615 172.264 177.438 175.706C175.213 177.569 174.861 177.772 175.486 176.8C179.195 170.928 190.516 148.655 190.516 147.156C190.516 146.792 191.063 146.63 192.351 146.63C194.342 146.63 200.511 144.565 205.274 142.337C210.232 139.989 215.697 135.939 220.382 131.039C225.067 126.179 227.253 123.102 231.314 115.65C234.632 109.495 249.155 79.0417 248.999 78.5558C248.882 78.1508 240.293 83.3748 234.437 87.4245C211.598 103.299 208.241 106.012 203.868 112.006C202.892 113.342 201.955 114.597 201.799 114.8C201.643 114.962 202.033 113.099 202.658 110.629C204.102 104.757 205.859 96.0097 206.913 89.1253C207.382 86.1286 207.772 83.6583 207.811 83.6583C208.592 83.5368 213.472 80.7426 216.283 78.8393C229.479 69.8491 236.311 56.5663 240.839 31.0132C241.932 24.8982 244.158 13.1138 244.665 10.6435C244.821 10.0361 244.704 9.75259 244.275 9.75259C243.299 9.75259 230.259 20.7676 227.8 23.6428C223.076 29.1908 216.049 40.0438 211.832 48.2646L209.646 52.4762V48.8315C209.646 43.891 208.982 33.038 208.28 26.2751C207.538 19.2693 207.538 19.5932 208.592 19.3097C209.1 19.1883 210.583 18.3783 211.911 17.4874C219.992 12.0609 224.052 4.12366 225.848 -9.68558C226.512 -14.6666 226.59 -27.9494 226.043 -36.2107C225.809 -39.3289 225.497 -45.2008 225.301 -49.291C225.145 -53.3406 224.872 -56.7828 224.716 -56.9448C224.247 -57.4307 222.998 -55.8109 220.382 -51.2753C218.938 -48.805 216.088 -44.1884 214.097 -41.0297C209.139 -33.295 204.961 -23.0899 202.814 -13.5327C202.346 -11.3055 201.838 -9.76657 201.721 -10.0905C201.604 -10.4145 200.862 -12.9658 200.081 -15.76C198.246 -22.118 196.021 -28.8808 193.952 -34.1454C193.093 -36.4131 192.312 -38.519 192.195 -38.8429C192.078 -39.1669 192.468 -38.8429 193.093 -38.114L194.225 -36.7776L197.036 -41.9612C200.277 -47.9951 201.487 -50.9513 202.58 -55.5679C205.039 -65.9349 203.673 -75.4111 196.372 -99.1824C191.766 -114.126 191.219 -115.867 190.907 -115.502C190.751 -115.34 189.658 -111.979 188.447 -108.092C182.708 -89.3823 182.006 -86.4666 181.537 -78.6508C181.225 -73.3053 181.537 -66.5424 182.318 -62.3713C182.513 -61.1564 182.63 -60.1035 182.552 -59.982C182.435 -59.901 181.928 -60.7109 181.381 -61.8448C178.492 -67.7168 170.762 -80.1491 165.062 -87.9649L161.588 -92.784L164.438 -90.2732C166.233 -88.7343 167.561 -87.8434 168.068 -87.9244C170.645 -88.3294 172.753 -100.721 171.816 -109.914C170.372 -123.48 167.092 -129.757 149.719 -152.111C147.65 -154.824 146.128 -156.444 145.972 -156.161C145.854 -155.877 145.425 -152.111 145.035 -147.778C143.551 -130.972 145.269 -118.621 150.656 -107.808L152.569 -103.961L147.377 -109.59C143.044 -114.288 136.172 -120.969 131.449 -125.141L130.316 -126.112L131.175 -128.745C132.386 -132.389 132.386 -137.897 131.214 -142.27C130.121 -146.361 127.349 -151.909 124.46 -155.918C121.923 -159.4 115.793 -165.839 112.241 -168.674C107.4 -172.602 94.1651 -181.39 93.1501 -181.39C92.8377 -181.39 97.1322 -164.705 98.3815 -160.939C100.373 -155.148 103.613 -148.952 107.009 -144.417C107.595 -143.607 106.15 -144.417 102.051 -147.211L100.493 -148.256C97.4786 -150.277 93.8219 -152.73 91.7056 -154.136L87.1379 -157.092L86.1618 -160.453C83.9365 -167.824 79.8373 -172.562 72.4197 -176.449C67.891 -178.798 64.963 -179.891 54.4612 -183.01Z" fill="url(#paint0_linear_8_49)"/>
<defs>
<linearGradient id="paint0_linear_8_49" x1="124.5" y1="307" x2="124.5" y2="51" gradientUnits="userSpaceOnUse">
<stop stop-color="#F5CC4F"/>
<stop offset="1" stop-color="#F5CC4F" stop-opacity="0"/>
</linearGradient>
</defs>
</svg>
