<svg xmlns="http://www.w3.org/2000/svg" width="50" height="51" viewBox="0 0 50 51" fill="none">
  <path d="M21.003 17.4341C23.246 13.4103 24.3675 11.3984 26.0443 11.3984C27.721 11.3984 28.8425 13.4103 31.0855 17.4341L31.6658 18.4751C32.3032 19.6185 32.6219 20.1902 33.1189 20.5675C33.6158 20.9447 34.2346 21.0847 35.4724 21.3648L36.5993 21.6197C40.9549 22.6053 43.1328 23.098 43.6509 24.7642C44.1691 26.4304 42.6844 28.1666 39.7149 31.6389L38.9467 32.5373C38.1029 33.524 37.681 34.0174 37.4912 34.6277C37.3014 35.2381 37.3652 35.8963 37.4927 37.2129L37.6089 38.4114C38.0578 43.0443 38.2823 45.3607 36.9258 46.3905C35.5693 47.4203 33.5302 46.4814 29.4519 44.6036L28.3969 44.1178C27.2379 43.5842 26.6585 43.3174 26.0443 43.3174C25.43 43.3174 24.8506 43.5842 23.6917 44.1178L22.6366 44.6036C18.5584 46.4814 16.5193 47.4203 15.1628 46.3905C13.8063 45.3607 14.0307 43.0443 14.4797 38.4114L14.5958 37.2129C14.7234 35.8963 14.7872 35.2381 14.5974 34.6277C14.4076 34.0174 13.9856 33.524 13.1418 32.5373L12.3736 31.6389C9.40419 28.1666 7.91948 26.4304 8.43762 24.7642C8.95576 23.098 11.1336 22.6053 15.4893 21.6197L16.6162 21.3648C17.8539 21.0847 18.4728 20.9447 18.9697 20.5675C19.4666 20.1902 19.7853 19.6185 20.4227 18.4751L21.003 17.4341Z" fill="currentColor"/>
  <path d="M10.144 6.18944C10.2065 5.96906 10.5977 5.96774 10.6616 6.18769C10.9537 7.19209 11.4953 8.67671 12.3143 9.4902C13.1334 10.3037 14.6216 10.8353 15.6279 11.1206C15.8483 11.183 15.8496 11.5742 15.6297 11.6382C14.6253 11.9303 13.1407 12.4719 12.3272 13.2909C11.5137 14.1099 10.9821 15.5982 10.6968 16.6045C10.6343 16.8249 10.2432 16.8262 10.1792 16.6063C9.8871 15.6019 9.34549 14.1172 8.52648 13.3037C7.70747 12.4902 6.21923 11.9587 5.21288 11.6734C4.9925 11.6109 4.99118 11.2197 5.21113 11.1558C6.21553 10.8637 7.70015 10.3221 8.51364 9.50304C9.32714 8.68403 9.85871 7.19579 10.144 6.18944Z" fill="currentColor"/>
  <path fill-rule="evenodd" clip-rule="evenodd" d="M39.5833 7.75C40.4463 7.75 41.1458 8.44955 41.1458 9.3125V9.83333H41.6667C42.5296 9.83333 43.2292 10.5329 43.2292 11.3958C43.2292 12.2588 42.5296 12.9583 41.6667 12.9583H41.1458V13.4792C41.1458 14.3421 40.4463 15.0417 39.5833 15.0417C38.7204 15.0417 38.0208 14.3421 38.0208 13.4792V12.9583H37.5C36.6371 12.9583 35.9375 12.2588 35.9375 11.3958C35.9375 10.5329 36.6371 9.83333 37.5 9.83333H38.0208V9.3125C38.0208 8.44956 38.7204 7.75 39.5833 7.75Z" fill="currentColor"/>
</svg>