<svg xmlns="http://www.w3.org/2000/svg" width="46" height="38" viewBox="0 0 46 38" fill="none">
  <path d="M31.7995 32.6467C33.1108 33.1598 34.33 33.5511 35.4397 33.8252L35.4551 33.8289C37.4417 34.3181 39.0198 34.4168 40.1413 34.216C40.4582 34.1592 40.7251 34.0823 40.9499 33.9894C41.499 33.759 41.8006 33.4314 41.9597 33.0923C42.1424 32.7029 42.2271 32.1382 42.1209 31.37C42.0639 30.9579 41.9519 30.4865 41.7701 29.951C41.7425 29.8694 41.7134 29.787 41.6829 29.7038C41.4363 29.0307 41.0974 28.3028 40.6683 27.5296L40.6452 27.4882C40.5835 27.3777 40.52 27.2662 40.4547 27.1538C39.8825 26.1703 39.1711 25.1206 38.3259 24.0236L38.3168 24.0118C35.4072 20.2386 31.0458 16.0765 25.8064 12.3546C20.2527 8.40946 14.8769 5.78588 10.7152 4.6864C10.5956 4.65481 10.4774 4.62457 10.3606 4.59567L10.3387 4.59044C8.35207 4.10124 6.77394 4.0025 5.65233 4.2033C5.20337 4.28367 4.8548 4.4047 4.58387 4.55404C4.19817 4.76696 3.96994 5.03712 3.83398 5.32687C3.59967 5.8262 3.53918 6.59226 3.78417 7.64094C3.86102 7.96864 3.96825 8.32632 4.11085 8.71548C4.26899 9.14704 4.46473 9.60044 4.6974 10.0732C4.73064 10.1407 4.76477 10.2088 4.79978 10.2777L4.86064 10.3962C4.93166 10.5334 5.00556 10.6718 5.0823 10.8115C5.6933 11.9238 6.49123 13.1282 7.46789 14.3958L7.47378 14.4035C8.52351 15.7651 9.76917 17.1863 11.189 18.6276C11.5114 18.9549 11.8109 19.2562 12.089 19.5335L12.1392 18.8915C12.3484 16.212 12.4529 14.8723 13.3615 14.3948C14.2701 13.9173 15.3809 14.6182 17.6025 16.02L18.1773 16.3826C18.8086 16.781 19.1243 16.9802 19.4879 17.03C19.8515 17.0797 20.2218 16.9745 20.9626 16.764L21.6369 16.5724C24.2436 15.8317 25.5469 15.4613 26.2443 16.1588C26.9418 16.8562 26.5714 18.1595 25.8307 20.7662L25.6391 21.4405C25.4286 22.1813 25.3234 22.5516 25.3732 22.9152C25.423 23.2788 25.6221 23.5945 26.0205 24.2258L26.3831 24.8006C27.7849 27.0222 28.4858 28.133 28.0083 29.0416C27.5308 29.9502 26.1911 30.0548 23.5117 30.264L22.8185 30.3181C22.057 30.3775 21.6763 30.4072 21.3435 30.5822C21.0107 30.7571 20.7634 31.0574 20.2689 31.6581L19.8187 32.2049C18.0784 34.3187 17.2082 35.3756 16.2157 35.2397C15.2231 35.1038 14.7655 33.8651 13.8502 31.3877L13.6134 30.7468C13.3533 30.0428 13.2233 29.6908 12.9678 29.4353C12.7123 29.1799 12.3603 29.0498 11.6563 28.7897L11.0154 28.5529C8.53806 27.6376 7.29936 27.18 7.16346 26.1874C7.02755 25.1949 8.08442 24.3247 10.1982 22.5845L10.4882 22.3457C10.0399 21.9058 9.53385 21.4004 8.96272 20.8207C7.22984 19.0615 5.70523 17.2928 4.4457 15.5763C4.19079 15.2289 3.94673 14.8836 3.714 14.541C3.46604 14.176 3.23095 13.8139 3.00928 13.4555C2.89385 13.2689 2.78206 13.0832 2.674 12.8987C2.46361 12.5393 2.26732 12.184 2.08574 11.8334C2.01686 11.7004 1.94954 11.567 1.88394 11.4333C1.60956 10.8743 1.37274 10.3258 1.17664 9.79067C1.00362 9.31849 0.85712 8.842 0.745217 8.36661C0.378394 6.81185 0.390594 5.30863 1.00495 3.99937C1.52165 2.89824 2.36491 2.14317 3.37801 1.66447C3.96191 1.38858 4.60222 1.2045 5.26895 1.09889C7.06104 0.815012 9.20891 1.05623 11.5134 1.66506C16.1436 2.88832 21.8604 5.71828 27.6161 9.80695C33.3782 13.9001 38.1999 18.559 41.3328 22.8223C42.3696 24.2332 43.2396 25.6252 43.8972 26.9604C44.1074 27.3871 44.2959 27.808 44.4613 28.2219C44.5588 28.466 44.6483 28.7077 44.7294 28.9467C45.3672 30.8262 45.5629 32.7701 44.7887 34.4198C44.2215 35.6287 43.2755 36.4113 42.1415 36.876C41.6841 37.0649 41.1965 37.2017 40.6922 37.2921C40.263 37.3689 39.813 37.4145 39.345 37.4313C39.2725 37.434 39.1998 37.4359 39.1271 37.4371C38.8231 37.4422 38.5105 37.4356 38.1901 37.4176C37.5641 37.3824 36.9079 37.3038 36.2262 37.1847C34.5084 36.8845 32.6286 36.3268 30.6609 35.5569C29.8573 35.2425 29.4607 34.3362 29.7751 33.5325C30.0895 32.7289 30.9959 32.3323 31.7995 32.6467Z" fill="#564101"/>
</svg>