<svg width="50" height="51" viewBox="0 0 50 51" fill="none" xmlns="http://www.w3.org/2000/svg">
<g id="Bold Duotone / Astronomy / Stars">
<path id="Vector" d="M31.7725 22.4601C29.717 20.0007 28.6893 18.771 27.5079 18.9604C26.3264 19.1498 25.7737 20.6329 24.6683 23.5991L24.3823 24.3665C24.0682 25.2094 23.9111 25.6308 23.6055 25.9413C23.2999 26.2517 22.8804 26.416 22.0414 26.7447L21.2775 27.0439C18.3248 28.2003 16.8484 28.7785 16.6801 29.9604C16.5117 31.1423 17.7628 32.1451 20.265 34.1507L20.9123 34.6695C21.6234 35.2395 21.9789 35.5244 22.1847 35.9145C22.3905 36.3046 22.4233 36.7555 22.4888 37.6575L22.5485 38.4787C22.7791 41.6529 22.8944 43.24 23.9718 43.781C25.0491 44.322 26.3751 43.4587 29.0269 41.732L29.713 41.2853C30.4666 40.7947 30.8434 40.5493 31.2761 40.48C31.7089 40.4106 32.1487 40.525 33.0283 40.7538L33.829 40.9622C36.9243 41.7674 38.4719 42.1701 39.3061 41.3226C40.1403 40.4751 39.7087 38.9387 38.8454 35.866L38.6221 35.0711C38.3768 34.1979 38.2541 33.7613 38.3158 33.3284C38.3775 32.8954 38.6165 32.5151 39.0946 31.7546L39.5298 31.0621C41.2121 28.3857 42.0533 27.0474 41.4915 25.9826C40.9297 24.9178 39.337 24.8316 36.1516 24.6592L35.3276 24.6146C34.4224 24.5656 33.9698 24.5411 33.5751 24.343C33.1804 24.1448 32.8884 23.7953 32.3043 23.0964L31.7725 22.4601Z" fill="#564101"/>
<path id="Vector_2" opacity="0.5" d="M21.5217 9.04908C24.2624 5.76985 25.6327 4.13023 27.208 4.38278C28.7832 4.63532 29.5201 6.61277 30.994 10.5677L31.3753 11.5908C31.7942 12.7147 32.0036 13.2766 32.411 13.6906C32.8185 14.1045 33.3779 14.3236 34.4966 14.7618L35.5151 15.1607C39.4521 16.7026 41.4205 17.4736 41.645 19.0494C41.8695 20.6252 40.2014 21.9623 36.8651 24.6364L36.002 25.3283C35.0539 26.0882 34.5799 26.4681 34.3055 26.9882C34.0311 27.5083 33.9874 28.1096 33.9 29.3123L33.8205 30.4072C33.513 34.6394 33.3592 36.7555 31.9227 37.4769C30.4862 38.1982 28.7183 37.0471 25.1825 34.7449L24.2678 34.1493C23.263 33.4951 22.7606 33.168 22.1836 33.0755C21.6065 32.983 21.0202 33.1355 19.8474 33.4407L18.7797 33.7184C14.6527 34.7921 12.5893 35.329 11.477 34.199C10.3647 33.069 10.9402 31.0205 12.0912 26.9236L12.389 25.8636C12.7161 24.6994 12.8796 24.1173 12.7974 23.54C12.7151 22.9628 12.3964 22.4557 11.759 21.4416L11.1787 20.5184C8.93557 16.9498 7.81402 15.1655 8.56307 13.7457C9.31213 12.326 11.4357 12.2111 15.6829 11.9812L16.7817 11.9217C17.9886 11.8564 18.5921 11.8237 19.1183 11.5595C19.6445 11.2952 20.0339 10.8293 20.8127 9.89745L21.5217 9.04908Z" fill="#564101"/>
</g>
</svg>
