<svg  viewBox="0 0 50 51" fill="none">
  <path d="M35.3022 6.91366C38.2368 5.46051 39.7041 4.73393 40.6956 5.39363C41.687 6.05333 41.5461 7.66241 41.2642 10.8806L41.1912 11.7132C41.1111 12.6277 41.0711 13.0849 41.2141 13.4994C41.3572 13.9139 41.6672 14.2386 42.2872 14.8882L42.8516 15.4795C45.0333 17.7653 46.1242 18.9082 45.7646 20.0792C45.405 21.2502 43.8331 21.6739 40.6894 22.5212L39.8761 22.7404C38.9828 22.9811 38.5361 23.1015 38.1799 23.3811C37.8237 23.6607 37.5983 24.0679 37.1476 24.8823L36.7372 25.6237C35.151 28.4896 34.3578 29.9225 33.1441 29.9865C31.9304 30.0506 31.0999 28.7033 29.4389 26.0088L29.0092 25.3117C28.5371 24.546 28.3011 24.1631 27.9379 23.9215C27.5747 23.6798 27.1255 23.6067 26.2269 23.4605L25.4089 23.3273C22.2468 22.8128 20.6658 22.5555 20.2752 21.424C19.8847 20.2926 20.9433 19.0363 23.0604 16.5237L23.6082 15.8737C24.2098 15.1597 24.5106 14.8027 24.6423 14.3737C24.774 13.9447 24.7218 13.4923 24.6172 12.5876L24.522 11.7639C24.1539 8.58001 23.9699 6.98807 24.9423 6.22476C25.9146 5.46145 27.3994 6.03228 30.3689 7.17394L31.1371 7.4693C31.981 7.79373 32.4029 7.95594 32.8475 7.93248C33.2921 7.90902 33.709 7.70255 34.543 7.28961L35.3022 6.91366Z" fill="currentColor"/>
  <path d="M18.848 24.5645C12.4854 28.6256 6.82001 35.9735 4.36105 42.7139C3.56323 44.9008 5.40247 46.8151 7.74828 46.8151H9.90104C9.90119 46.0842 10.0724 45.1762 10.3255 44.223C10.586 43.2419 10.9612 42.1116 11.4288 40.9005C12.364 38.4787 13.6939 35.669 15.289 32.9913C16.8783 30.3233 18.7681 27.7234 20.8411 25.7704C20.8924 25.7221 20.9439 25.6741 20.9956 25.6264C20.9469 25.6116 20.8988 25.5966 20.8514 25.5813C20.2592 25.3907 19.519 25.0874 18.848 24.5645Z" fill="currentColor"/>
  <path d="M25.0473 26.4332C24.3833 26.8393 23.6937 27.3764 22.984 28.045C21.1987 29.7269 19.4804 32.0613 17.9737 34.5906C16.4728 37.1102 15.2188 39.7608 14.3441 42.0262C13.9068 43.1586 13.5705 44.1786 13.3458 45.0249C13.114 45.8979 13.0262 46.4938 13.026 46.8151H18.9282C18.9284 44.4734 19.7394 40.1365 21.2071 35.7905C22.2841 32.6015 23.7755 29.2212 25.6974 26.539L25.0473 26.4332Z" fill="currentColor"/>
  <path d="M27.7099 29.1333C26.3021 31.3077 25.1036 34.0193 24.1678 36.7904C22.7556 40.9723 22.0534 44.9475 22.0532 46.8151H24.7382C27.084 46.8151 28.9726 44.9268 29.1287 42.6064C29.397 38.6185 30.0128 35.0244 30.7158 32.4684C30.0199 32.0597 29.4818 31.5225 29.0862 31.058C28.6299 30.5223 28.1709 29.8534 27.7099 29.1333Z" fill="currentColor"/>
</svg>